<?xml version="1.0" encoding="utf-8"?>
<!-- Generator: Adobe Illustrator 22.0.1, SVG Export Plug-In . SVG Version: 6.00 Build 0)  -->
<svg version="1.1" id="Capa_1" xmlns="http://www.w3.org/2000/svg" xmlns:xlink="http://www.w3.org/1999/xlink" x="0px" y="0px"
	 viewBox="0 0 994.4 662.9" style="enable-background:new 0 0 994.4 662.9;" xml:space="preserve">
<style type="text/css">
	.st0{fill:url(#Cuerpo_-_Marco_1_);stroke:#FFFFFF;stroke-miterlimit:10;}
	.st1{fill:#202126;stroke:#FFFFFF;stroke-miterlimit:10;}
	.st2{stroke:#FFFFFF;stroke-miterlimit:10;}
	.st3{fill:#FFFFFF;}
	.st4{fill:url(#SVGID_1_);stroke:#FFFFFF;stroke-miterlimit:10;}
	.st5{fill:url(#SVGID_2_);stroke:#FFFFFF;stroke-miterlimit:10;}
	.st6{fill:url(#SVGID_3_);stroke:#FFFFFF;stroke-miterlimit:10;}
	.st7{fill:url(#SVGID_4_);stroke:#FFFFFF;stroke-miterlimit:10;}
</style>
<g id="Sombra">
	
		<image style="overflow:visible;" width="958" height="84" xlink:href="8E91F028D3101247.png"  transform="matrix(1 0 0 1 18.4118 548.9412)">
	</image>
</g>
<linearGradient id="Cuerpo_-_Marco_1_" gradientUnits="userSpaceOnUse" x1="128.9864" y1="326.3017" x2="866.0964" y2="326.3017">
	<stop  offset="0" style="stop-color:#E6D19E"/>
	<stop  offset="1" style="stop-color:#BDA771"/>
</linearGradient>
<path id="Cuerpo_-_Marco" class="st0" d="M866.1,557.5c0,15-12.3,27.3-27.3,27.3H156.3c-15,0-27.3-12.3-27.3-27.3V95.1
	c0-15,12.3-27.3,27.3-27.3h682.6c15,0,27.3,12.3,27.3,27.3V557.5z"/>
<path id="Abajo" class="st1" d="M131.9,557.5c0,13.4,10.9,24.3,24.3,24.3h682.6c13.4,0,24.3-10.9,24.3-24.3v-9H131.9V557.5z"/>
<path id="Borde" class="st2" d="M838.8,70.8H156.3c-13.4,0-24.3,10.9-24.3,24.3v453.3h731.3V95.1C863.2,81.7,852.3,70.8,838.8,70.8z
	"/>
<rect id="_x5B_TU_PANTALLA_AQUÃ_x5D__1_" x="157.7" y="105.7" class="st3" width="679.6" height="424.5"/>
<g id="Cuerpo">
	<linearGradient id="SVGID_1_" gradientUnits="userSpaceOnUse" x1="46.755" y1="571.3636" x2="948.3278" y2="571.3636">
		<stop  offset="0" style="stop-color:#876308"/>
		<stop  offset="2.315561e-02" style="stop-color:#F7F2E6"/>
		<stop  offset="7.818541e-02" style="stop-color:#CFBF9A"/>
		<stop  offset="0.5049" style="stop-color:#F7E5B9"/>
		<stop  offset="0.913" style="stop-color:#CFC09B"/>
		<stop  offset="0.9721" style="stop-color:#F7F3E8"/>
		<stop  offset="0.9754" style="stop-color:#F5F0E3"/>
		<stop  offset="0.979" style="stop-color:#EEE7D6"/>
		<stop  offset="0.9828" style="stop-color:#E2D8C0"/>
		<stop  offset="0.9868" style="stop-color:#D2C3A0"/>
		<stop  offset="0.9909" style="stop-color:#BDA878"/>
		<stop  offset="0.995" style="stop-color:#A48847"/>
		<stop  offset="0.9992" style="stop-color:#87610E"/>
		<stop  offset="1" style="stop-color:#805901"/>
	</linearGradient>
	<polygon class="st4" points="948.3,569.1 497.5,569.1 46.8,569.1 46.8,573.7 948.3,573.7 	"/>
	<linearGradient id="SVGID_2_" gradientUnits="userSpaceOnUse" x1="497.5414" y1="573.5739" x2="497.5414" y2="587.9506">
		<stop  offset="0" style="stop-color:#CFBF9A"/>
		<stop  offset="0.8707" style="stop-color:#615443"/>
	</linearGradient>
	<path class="st5" d="M497.5,587.3c0,0,233.4,0,328.1,0s122.7-13.6,122.7-13.6H46.8c0,0,28,13.6,122.7,13.6S497.5,587.3,497.5,587.3
		z"/>
	<linearGradient id="SVGID_3_" gradientUnits="userSpaceOnUse" x1="411.502" y1="572.4593" x2="583.5809" y2="572.4593">
		<stop  offset="0" style="stop-color:#73633C"/>
		<stop  offset="1.005464e-02" style="stop-color:#7E6E48"/>
		<stop  offset="4.758497e-02" style="stop-color:#A4946E"/>
		<stop  offset="8.224707e-02" style="stop-color:#C0B089"/>
		<stop  offset="0.1127" style="stop-color:#D0C09A"/>
		<stop  offset="0.1356" style="stop-color:#D6C6A0"/>
		<stop  offset="0.8749" style="stop-color:#D1C19D"/>
		<stop  offset="0.8965" style="stop-color:#CABA96"/>
		<stop  offset="0.9285" style="stop-color:#B6A683"/>
		<stop  offset="0.9668" style="stop-color:#958665"/>
		<stop  offset="1" style="stop-color:#736545"/>
	</linearGradient>
	<path class="st6" d="M497.5,569.1h-86v4.6c6,1.5,18,2.2,34.8,2.2c13.9,0,51.2,0,51.2,0s37.3,0,51.2,0c16.8,0,28.9-0.7,34.8-2.2
		v-4.6H497.5z"/>
	<linearGradient id="SVGID_4_" gradientUnits="userSpaceOnUse" x1="42.3584" y1="580.4944" x2="949.2596" y2="580.4944">
		<stop  offset="0" style="stop-color:#F7E5B9"/>
		<stop  offset="1.222186e-02" style="stop-color:#F8E8C0"/>
		<stop  offset="5.735046e-02" style="stop-color:#F9EFD6"/>
		<stop  offset="0.1105" style="stop-color:#FAF5E7"/>
		<stop  offset="0.1758" style="stop-color:#FBF9F3"/>
		<stop  offset="0.2668" style="stop-color:#FCFBFA"/>
		<stop  offset="0.5112" style="stop-color:#FCFCFC"/>
		<stop  offset="0.7261" style="stop-color:#FCFBFA"/>
		<stop  offset="0.8178" style="stop-color:#FBF9F3"/>
		<stop  offset="0.886" style="stop-color:#FAF5E6"/>
		<stop  offset="0.9426" style="stop-color:#F9EED5"/>
		<stop  offset="0.9915" style="stop-color:#F7E7BE"/>
		<stop  offset="1" style="stop-color:#F7E5B9"/>
	</linearGradient>
	<path class="st7" d="M497.5,587.3c0,0,233.4,0,328.1,0s122.7-13.6,122.7-13.6H46.8c0,0,28,13.6,122.7,13.6S497.5,587.3,497.5,587.3
		z"/>
</g>
</svg>
